<svg xmlns="http://www.w3.org/2000/svg" width="760" height="430" viewBox="0 0 760 430">
<defs><linearGradient id="bg" x1="0" y1="0" x2="1" y2="1"><stop stop-color="#18162f"/><stop offset="1" stop-color="#0d1020"/></linearGradient>
<pattern id="grid" width="26" height="26" patternUnits="userSpaceOnUse"><path d="M26 0H0V26" fill="none" stroke="white" stroke-opacity=".045"/></pattern></defs>
<rect x="4" y="4" width="752" height="422" rx="22" fill="url(#bg)" stroke="#6ab8ff" stroke-width="7"/>
<rect x="4" y="4" width="752" height="422" rx="22" fill="url(#grid)"/>
<text x="34" y="53" fill="#f4f5fb" font-family="Arial" font-size="25" font-weight="700">⌁  CURRENT FOCUS</text>
<text x="34" y="82" fill="#6ab8ff" font-family="Arial" font-size="14" font-weight="600">AI/ML × ELECTRONICS</text>
<text x="38" y="132" fill="#e9ebf4" font-family="Arial" font-size="17">Artificial Intelligence</text><rect x="250" y="115" width="410" height="22" rx="11" fill="#29283d"/><rect x="250" y="115" width="330" height="22" rx="11" fill="#6ab8ff"/>
<text x="38" y="190" fill="#e9ebf4" font-family="Arial" font-size="17">Electronics</text><rect x="250" y="173" width="410" height="22" rx="11" fill="#29283d"/><rect x="250" y="173" width="275" height="22" rx="11" fill="#65e6df"/>
<text x="38" y="248" fill="#e9ebf4" font-family="Arial" font-size="17">Computer Vision</text><rect x="250" y="231" width="410" height="22" rx="11" fill="#29283d"/><rect x="250" y="231" width="235" height="22" rx="11" fill="#8b7cf6"/>
<text x="38" y="306" fill="#e9ebf4" font-family="Arial" font-size="17">Embedded Systems</text><rect x="250" y="289" width="410" height="22" rx="11" fill="#29283d"/><rect x="250" y="289" width="205" height="22" rx="11" fill="#f0b35b"/>
<text x="34" y="397" fill="#858aa1" font-family="Arial" font-size="12">Learning path • AI → Electronics → Computer Vision → Embedded Systems</text>
</svg>